<svg width="28" height="29" viewBox="0 0 28 29" fill="none" xmlns="http://www.w3.org/2000/svg">
<path id="Vector" d="M21.32 4.35L22.16 6.3365L23.9867 7.25L22.16 8.1635L21.32 10.15L20.48 8.1635L18.6533 7.25L20.48 6.3365L21.32 4.35ZM13.3333 5.9885V2.9H16C16.76 2.9 17.4667 3.1465 18.0667 3.5525L19.9733 1.479C18.8347 0.523798 17.438 0.00391684 16 0H8.66667V2.9H10.6667V6.003C9.51427 6.26481 8.44603 6.85337 7.57027 7.70899C6.69451 8.56462 6.04237 9.65687 5.68 10.875H10.9867L18.6667 13.9925V13.0935C18.667 11.4222 18.1363 9.80202 17.1644 8.50729C16.1925 7.21256 14.8392 6.32277 13.3333 5.9885ZM0 29H5.33333V13.05H0V29ZM25.3333 21.75H16L13.2133 20.6915L13.6533 19.3285L16 20.3H19.76C20.6267 20.3 21.3333 19.5315 21.3333 18.589C21.3333 17.8785 20.92 17.2405 20.3067 16.9795L10.6267 13.05H8V26.129L17.3333 29L28 24.65C27.9867 23.055 26.8133 21.75 25.3333 21.75ZM25.3333 17.4C26.8 17.4 28 16.095 28 14.5C28 12.905 25.3333 8.7 25.3333 8.7C25.3333 8.7 22.6667 12.905 22.6667 14.5C22.6667 16.095 23.8667 17.4 25.3333 17.4Z" fill="black"/>
</svg>
