<svg width="28" height="29" viewBox="0 0 28 29" fill="none" xmlns="http://www.w3.org/2000/svg">
<path id="Vector" d="M24.9955 11.3121C26.0041 11.9096 26.822 12.7962 27.3493 13.8638C27.8766 14.9314 28.0905 16.1337 27.9651 17.3242C27.8396 18.5147 27.3801 19.642 26.6427 20.5684C25.9052 21.4949 24.9217 22.1806 23.812 22.5418C23.4198 24.373 22.4315 26.0114 21.0108 27.1859C19.59 28.3603 17.822 29.0003 15.9995 29H13.0008C12.7357 29 12.4815 28.8917 12.2941 28.6988C12.1066 28.5059 12.0013 28.2444 12.0013 27.9716C12.0013 27.6989 12.1066 27.4373 12.2941 27.2445C12.4815 27.0516 12.7357 26.9433 13.0008 26.9433H15.9995C17.2402 26.9436 18.4504 26.5482 19.4636 25.8116C20.4768 25.0749 21.2431 24.0331 21.6569 22.8298H20.9972C20.7322 22.8298 20.4779 22.7214 20.2905 22.5286C20.103 22.3357 19.9977 22.0742 19.9977 21.8014V11.5177C19.9977 11.245 20.103 10.9834 20.2905 10.7906C20.4779 10.5977 20.7322 10.4894 20.9972 10.4894H21.9968C22.3207 10.4894 22.6385 10.5161 22.9504 10.5675C22.7253 8.28637 21.6853 6.17237 20.0318 4.63511C18.3783 3.09784 16.229 2.24676 14.0004 2.24676C11.7718 2.24676 9.62251 3.09784 7.96899 4.63511C6.31548 6.17237 5.27545 8.28637 5.05041 10.5675C5.36576 10.5156 5.68462 10.4894 6.00398 10.4894H7.00354C7.26863 10.4894 7.52287 10.5977 7.71032 10.7906C7.89778 10.9834 8.00309 11.245 8.00309 11.5177V21.8014C8.00309 22.0742 7.89778 22.3357 7.71032 22.5286C7.52287 22.7214 7.26863 22.8298 7.00354 22.8298H6.00398C4.68254 22.8313 3.39761 22.3837 2.34882 21.5567C1.30004 20.7296 0.546127 19.5693 0.204222 18.256C-0.137683 16.9428 -0.0484368 15.5501 0.458095 14.2944C0.964626 13.0387 1.86008 11.9903 3.00533 11.3121C3.00533 8.31191 4.16374 5.43465 6.22571 3.31322C8.28768 1.1918 11.0843 0 14.0004 0C16.9165 0 19.7131 1.1918 21.7751 3.31322C23.837 5.43465 24.9955 8.31191 24.9955 11.3121ZM6.00398 12.5461C4.9436 12.5461 3.92664 12.9795 3.17683 13.7509C2.42702 14.5223 2.00578 15.5686 2.00578 16.6596C2.00578 17.7505 2.42702 18.7968 3.17683 19.5682C3.92664 20.3397 4.9436 20.773 6.00398 20.773V12.5461ZM25.995 16.6596C25.995 15.5686 25.5738 14.5223 24.824 13.7509C24.0741 12.9795 23.0572 12.5461 21.9968 12.5461V20.773C23.0572 20.773 24.0741 20.3397 24.824 19.5682C25.5738 18.7968 25.995 17.7505 25.995 16.6596Z" fill="black"/>
</svg>
